<?xml version="1.0" standalone="no"?>
<!DOCTYPE svg PUBLIC "-//W3C//DTD SVG 20010904//EN"
 "http://www.w3.org/TR/2001/REC-SVG-20010904/DTD/svg10.dtd">
<svg version="1.0" xmlns="http://www.w3.org/2000/svg"
 width="1024.000000pt" height="1024.000000pt" viewBox="0 0 1024.000000 1024.000000"
 preserveAspectRatio="xMidYMid meet">
<metadata>
Created by potrace 1.14, written by Peter Selinger 2001-2017
</metadata>
<g transform="translate(0.000000,1024.000000) scale(0.100000,-0.100000)"
fill="#000000" stroke="none">
<path d="M1140 10233 c-27 -4 -165 -32 -190 -38 -111 -27 -289 -112 -404 -193
-68 -47 -216 -186 -264 -246 -36 -45 -102 -145 -102 -154 0 -6 -3 -12 -8 -14
-24 -11 -132 -291 -147 -383 -4 -22 -10 -65 -15 -95 -5 -30 -9 -1826 -9 -3990
0 -4310 -4 -4009 59 -4211 30 -96 70 -187 115 -264 13 -22 27 -47 32 -55 28
-57 212 -260 285 -315 145 -110 319 -195 478 -234 47 -11 99 -24 115 -28 17
-4 1819 -9 4005 -10 4271 -2 4021 -5 4205 46 101 28 150 47 240 93 137 70 215
128 341 254 175 175 296 413 344 676 19 100 19 220 17 4083 l-3 3980 -21 85
c-65 261 -174 458 -348 635 -202 204 -456 332 -745 374 -62 9 -7924 13 -7980
4z"/>
</g>
</svg>
